<mxfile host="app.diagrams.net" agent="Mozilla/5.0 (Windows NT 10.0; Win64; x64) AppleWebKit/537.36 (KHTML, like Gecko) Chrome/130.0.0.0 Safari/537.36" version="24.8.2">
  <diagram name="Страница — 1" id="7dOZeALXBx4eXPx_rgEK">
    <mxGraphModel dx="868" dy="2097" grid="1" gridSize="10" guides="1" tooltips="1" connect="1" arrows="1" fold="1" page="1" pageScale="1" pageWidth="827" pageHeight="1169" math="0" shadow="0">
      <root>
        <mxCell id="0" />
        <mxCell id="1" parent="0" />
        <mxCell id="Z-cno5B3Iub0lj5Ad9rB-1" value="Зарегистрированный пользователь" style="shape=umlActor;verticalLabelPosition=bottom;verticalAlign=top;html=1;outlineConnect=0;" parent="1" vertex="1">
          <mxGeometry x="350" y="195" width="30" height="60" as="geometry" />
        </mxCell>
        <mxCell id="Z-cno5B3Iub0lj5Ad9rB-16" value="Администратор БД" style="shape=umlActor;verticalLabelPosition=bottom;verticalAlign=top;html=1;outlineConnect=0;" parent="1" vertex="1">
          <mxGeometry x="910" y="495" width="30" height="60" as="geometry" />
        </mxCell>
        <mxCell id="Z-cno5B3Iub0lj5Ad9rB-31" value="Оператор поддержки" style="shape=umlActor;verticalLabelPosition=bottom;verticalAlign=top;html=1;outlineConnect=0;" parent="1" vertex="1">
          <mxGeometry x="350" y="430" width="30" height="60" as="geometry" />
        </mxCell>
        <mxCell id="Z-cno5B3Iub0lj5Ad9rB-46" value="Авторизация" style="ellipse;whiteSpace=wrap;html=1;" parent="1" vertex="1">
          <mxGeometry x="670" y="335" width="120" height="80" as="geometry" />
        </mxCell>
        <mxCell id="Z-cno5B3Iub0lj5Ad9rB-49" value="" style="endArrow=none;html=1;rounded=0;" parent="1" source="Z-cno5B3Iub0lj5Ad9rB-46" edge="1">
          <mxGeometry width="50" height="50" relative="1" as="geometry">
            <mxPoint x="310" y="305" as="sourcePoint" />
            <mxPoint x="380" y="255" as="targetPoint" />
          </mxGeometry>
        </mxCell>
        <mxCell id="Z-cno5B3Iub0lj5Ad9rB-52" value="Регистрация" style="ellipse;whiteSpace=wrap;html=1;" parent="1" vertex="1">
          <mxGeometry x="105" y="105" width="120" height="80" as="geometry" />
        </mxCell>
        <mxCell id="Z-cno5B3Iub0lj5Ad9rB-53" value="Незарегистрированный пользователь" style="shape=umlActor;verticalLabelPosition=bottom;verticalAlign=top;html=1;outlineConnect=0;" parent="1" vertex="1">
          <mxGeometry x="150" y="250" width="30" height="60" as="geometry" />
        </mxCell>
        <mxCell id="Z-cno5B3Iub0lj5Ad9rB-56" value="" style="endArrow=none;html=1;rounded=0;entryX=0.5;entryY=1;entryDx=0;entryDy=0;exitX=0.5;exitY=0;exitDx=0;exitDy=0;exitPerimeter=0;" parent="1" source="Z-cno5B3Iub0lj5Ad9rB-53" target="Z-cno5B3Iub0lj5Ad9rB-52" edge="1">
          <mxGeometry width="50" height="50" relative="1" as="geometry">
            <mxPoint x="350" y="380" as="sourcePoint" />
            <mxPoint x="400" y="330" as="targetPoint" />
          </mxGeometry>
        </mxCell>
        <mxCell id="Z-cno5B3Iub0lj5Ad9rB-57" value="Написание заявки" style="ellipse;whiteSpace=wrap;html=1;" parent="1" vertex="1">
          <mxGeometry x="505" y="45" width="120" height="80" as="geometry" />
        </mxCell>
        <mxCell id="Z-cno5B3Iub0lj5Ad9rB-58" value="" style="endArrow=none;html=1;rounded=0;entryX=0.025;entryY=0.658;entryDx=0;entryDy=0;entryPerimeter=0;" parent="1" target="Z-cno5B3Iub0lj5Ad9rB-57" edge="1">
          <mxGeometry width="50" height="50" relative="1" as="geometry">
            <mxPoint x="385" y="205" as="sourcePoint" />
            <mxPoint x="435" y="155" as="targetPoint" />
          </mxGeometry>
        </mxCell>
        <mxCell id="Z-cno5B3Iub0lj5Ad9rB-59" value="Получение заявки" style="ellipse;whiteSpace=wrap;html=1;" parent="1" vertex="1">
          <mxGeometry x="680" y="65" width="120" height="80" as="geometry" />
        </mxCell>
        <mxCell id="Z-cno5B3Iub0lj5Ad9rB-60" value="" style="endArrow=none;html=1;rounded=0;entryX=0.011;entryY=0.658;entryDx=0;entryDy=0;entryPerimeter=0;" parent="1" target="Z-cno5B3Iub0lj5Ad9rB-59" edge="1">
          <mxGeometry width="50" height="50" relative="1" as="geometry">
            <mxPoint x="400" y="215" as="sourcePoint" />
            <mxPoint x="640" y="355" as="targetPoint" />
          </mxGeometry>
        </mxCell>
        <mxCell id="Z-cno5B3Iub0lj5Ad9rB-61" value="Отправление заявки с обратной связью" style="ellipse;whiteSpace=wrap;html=1;" parent="1" vertex="1">
          <mxGeometry x="690" y="165" width="130" height="80" as="geometry" />
        </mxCell>
        <mxCell id="Z-cno5B3Iub0lj5Ad9rB-63" value="" style="endArrow=none;html=1;rounded=0;entryX=0;entryY=0.5;entryDx=0;entryDy=0;" parent="1" target="Z-cno5B3Iub0lj5Ad9rB-61" edge="1">
          <mxGeometry width="50" height="50" relative="1" as="geometry">
            <mxPoint x="400" y="245" as="sourcePoint" />
            <mxPoint x="640" y="355" as="targetPoint" />
          </mxGeometry>
        </mxCell>
        <mxCell id="Z-cno5B3Iub0lj5Ad9rB-64" value="Получение ответа от заявки" style="ellipse;whiteSpace=wrap;html=1;" parent="1" vertex="1">
          <mxGeometry x="695" y="255" width="165" height="80" as="geometry" />
        </mxCell>
        <mxCell id="Z-cno5B3Iub0lj5Ad9rB-65" value="" style="endArrow=none;html=1;rounded=0;" parent="1" edge="1">
          <mxGeometry width="50" height="50" relative="1" as="geometry">
            <mxPoint x="400" y="255" as="sourcePoint" />
            <mxPoint x="690" y="295" as="targetPoint" />
          </mxGeometry>
        </mxCell>
        <mxCell id="Z-cno5B3Iub0lj5Ad9rB-66" value="Создание бэкапа" style="ellipse;whiteSpace=wrap;html=1;" parent="1" vertex="1">
          <mxGeometry x="1060" y="415" width="120" height="80" as="geometry" />
        </mxCell>
        <mxCell id="Z-cno5B3Iub0lj5Ad9rB-67" value="Получение даты создания заявки" style="ellipse;whiteSpace=wrap;html=1;" parent="1" vertex="1">
          <mxGeometry x="890" y="45" width="120" height="80" as="geometry" />
        </mxCell>
        <mxCell id="Z-cno5B3Iub0lj5Ad9rB-68" value="" style="endArrow=none;dashed=1;html=1;rounded=0;exitX=1;exitY=0.5;exitDx=0;exitDy=0;entryX=0;entryY=0.5;entryDx=0;entryDy=0;" parent="1" edge="1">
          <mxGeometry width="50" height="50" relative="1" as="geometry">
            <mxPoint x="800" y="105" as="sourcePoint" />
            <mxPoint x="890" y="85" as="targetPoint" />
          </mxGeometry>
        </mxCell>
        <mxCell id="MCVplzFCMB12nCnuoPRh-5" value="extend" style="edgeLabel;html=1;align=center;verticalAlign=middle;resizable=0;points=[];" vertex="1" connectable="0" parent="Z-cno5B3Iub0lj5Ad9rB-68">
          <mxGeometry x="-0.3388" relative="1" as="geometry">
            <mxPoint as="offset" />
          </mxGeometry>
        </mxCell>
        <mxCell id="Z-cno5B3Iub0lj5Ad9rB-69" value="" style="endArrow=none;html=1;rounded=0;exitX=0.5;exitY=0.5;exitDx=0;exitDy=0;exitPerimeter=0;entryX=0;entryY=0.5;entryDx=0;entryDy=0;" parent="1" source="Z-cno5B3Iub0lj5Ad9rB-16" target="Z-cno5B3Iub0lj5Ad9rB-66" edge="1">
          <mxGeometry width="50" height="50" relative="1" as="geometry">
            <mxPoint x="1070" y="505" as="sourcePoint" />
            <mxPoint x="1120" y="455" as="targetPoint" />
          </mxGeometry>
        </mxCell>
        <mxCell id="Z-cno5B3Iub0lj5Ad9rB-71" value="Архивация данных" style="ellipse;whiteSpace=wrap;html=1;" parent="1" vertex="1">
          <mxGeometry x="1100" y="505" width="120" height="80" as="geometry" />
        </mxCell>
        <mxCell id="Z-cno5B3Iub0lj5Ad9rB-72" value="" style="endArrow=none;html=1;rounded=0;exitX=1;exitY=1;exitDx=0;exitDy=0;exitPerimeter=0;entryX=0.006;entryY=0.358;entryDx=0;entryDy=0;entryPerimeter=0;" parent="1" target="Z-cno5B3Iub0lj5Ad9rB-71" edge="1">
          <mxGeometry width="50" height="50" relative="1" as="geometry">
            <mxPoint x="930" y="535" as="sourcePoint" />
            <mxPoint x="1030" y="545" as="targetPoint" />
          </mxGeometry>
        </mxCell>
        <mxCell id="Z-cno5B3Iub0lj5Ad9rB-74" value="Вывод информации о пользователях" style="ellipse;whiteSpace=wrap;html=1;" parent="1" vertex="1">
          <mxGeometry x="1090" y="595" width="120" height="80" as="geometry" />
        </mxCell>
        <mxCell id="Z-cno5B3Iub0lj5Ad9rB-75" value="" style="endArrow=none;html=1;rounded=0;entryX=1;entryY=1;entryDx=0;entryDy=0;entryPerimeter=0;" parent="1" target="Z-cno5B3Iub0lj5Ad9rB-16" edge="1">
          <mxGeometry width="50" height="50" relative="1" as="geometry">
            <mxPoint x="1090" y="622" as="sourcePoint" />
            <mxPoint x="1110" y="415" as="targetPoint" />
          </mxGeometry>
        </mxCell>
        <mxCell id="Z-cno5B3Iub0lj5Ad9rB-76" value="Вывод информации о заявках" style="ellipse;whiteSpace=wrap;html=1;" parent="1" vertex="1">
          <mxGeometry x="980" y="660" width="120" height="80" as="geometry" />
        </mxCell>
        <mxCell id="MCVplzFCMB12nCnuoPRh-8" value="При завершении диалога с оператором перенос в архив" style="ellipse;whiteSpace=wrap;html=1;" vertex="1" parent="1">
          <mxGeometry x="910" y="150" width="150" height="100" as="geometry" />
        </mxCell>
        <mxCell id="MCVplzFCMB12nCnuoPRh-11" value="" style="endArrow=none;dashed=1;html=1;rounded=0;exitX=1;exitY=0.5;exitDx=0;exitDy=0;entryX=0;entryY=0.5;entryDx=0;entryDy=0;" edge="1" parent="1" source="Z-cno5B3Iub0lj5Ad9rB-61" target="MCVplzFCMB12nCnuoPRh-8">
          <mxGeometry width="50" height="50" relative="1" as="geometry">
            <mxPoint x="940" y="345" as="sourcePoint" />
            <mxPoint x="990" y="295" as="targetPoint" />
          </mxGeometry>
        </mxCell>
        <mxCell id="MCVplzFCMB12nCnuoPRh-12" value="include" style="edgeLabel;html=1;align=center;verticalAlign=middle;resizable=0;points=[];" vertex="1" connectable="0" parent="MCVplzFCMB12nCnuoPRh-11">
          <mxGeometry x="0.037" y="-2" relative="1" as="geometry">
            <mxPoint as="offset" />
          </mxGeometry>
        </mxCell>
        <mxCell id="MCVplzFCMB12nCnuoPRh-13" value="Присвоение тикета, а также важности заявки" style="ellipse;whiteSpace=wrap;html=1;" vertex="1" parent="1">
          <mxGeometry x="660" y="-45" width="120" height="80" as="geometry" />
        </mxCell>
        <mxCell id="MCVplzFCMB12nCnuoPRh-14" value="" style="endArrow=none;dashed=1;html=1;rounded=0;exitX=0.958;exitY=0.263;exitDx=0;exitDy=0;exitPerimeter=0;entryX=0;entryY=1;entryDx=0;entryDy=0;" edge="1" parent="1" source="Z-cno5B3Iub0lj5Ad9rB-57" target="MCVplzFCMB12nCnuoPRh-13">
          <mxGeometry width="50" height="50" relative="1" as="geometry">
            <mxPoint x="830" y="145" as="sourcePoint" />
            <mxPoint x="880" y="95" as="targetPoint" />
          </mxGeometry>
        </mxCell>
        <mxCell id="MCVplzFCMB12nCnuoPRh-15" value="include" style="edgeLabel;html=1;align=center;verticalAlign=middle;resizable=0;points=[];" vertex="1" connectable="0" parent="MCVplzFCMB12nCnuoPRh-14">
          <mxGeometry x="-0.1152" y="-3" relative="1" as="geometry">
            <mxPoint as="offset" />
          </mxGeometry>
        </mxCell>
        <mxCell id="MCVplzFCMB12nCnuoPRh-17" value="" style="endArrow=classic;html=1;rounded=0;exitX=0.5;exitY=0;exitDx=0;exitDy=0;exitPerimeter=0;" edge="1" parent="1" source="Z-cno5B3Iub0lj5Ad9rB-31">
          <mxGeometry width="50" height="50" relative="1" as="geometry">
            <mxPoint x="510" y="430" as="sourcePoint" />
            <mxPoint x="365" y="280" as="targetPoint" />
          </mxGeometry>
        </mxCell>
        <mxCell id="MCVplzFCMB12nCnuoPRh-19" value="" style="endArrow=none;html=1;rounded=0;" edge="1" parent="1" target="Z-cno5B3Iub0lj5Ad9rB-31">
          <mxGeometry width="50" height="50" relative="1" as="geometry">
            <mxPoint x="400" y="620" as="sourcePoint" />
            <mxPoint x="440" y="470" as="targetPoint" />
          </mxGeometry>
        </mxCell>
        <mxCell id="MCVplzFCMB12nCnuoPRh-20" value="Просмотр заявок" style="ellipse;whiteSpace=wrap;html=1;" vertex="1" parent="1">
          <mxGeometry x="360" y="610" width="120" height="80" as="geometry" />
        </mxCell>
        <mxCell id="MCVplzFCMB12nCnuoPRh-21" value="Ответы на заявки" style="ellipse;whiteSpace=wrap;html=1;" vertex="1" parent="1">
          <mxGeometry x="480" y="545" width="120" height="80" as="geometry" />
        </mxCell>
        <mxCell id="MCVplzFCMB12nCnuoPRh-22" value="" style="endArrow=none;html=1;rounded=0;exitX=1;exitY=1;exitDx=0;exitDy=0;exitPerimeter=0;entryX=0;entryY=0;entryDx=0;entryDy=0;" edge="1" parent="1" source="Z-cno5B3Iub0lj5Ad9rB-31" target="MCVplzFCMB12nCnuoPRh-21">
          <mxGeometry width="50" height="50" relative="1" as="geometry">
            <mxPoint x="610" y="550" as="sourcePoint" />
            <mxPoint x="660" y="500" as="targetPoint" />
          </mxGeometry>
        </mxCell>
        <mxCell id="MCVplzFCMB12nCnuoPRh-23" value="Распределение тикетов" style="ellipse;whiteSpace=wrap;html=1;" vertex="1" parent="1">
          <mxGeometry x="270" y="740" width="120" height="80" as="geometry" />
        </mxCell>
        <mxCell id="MCVplzFCMB12nCnuoPRh-24" value="" style="endArrow=classic;html=1;rounded=0;exitX=0.295;exitY=0.962;exitDx=0;exitDy=0;exitPerimeter=0;dashed=1;" edge="1" parent="1" source="MCVplzFCMB12nCnuoPRh-20" target="MCVplzFCMB12nCnuoPRh-23">
          <mxGeometry width="50" height="50" relative="1" as="geometry">
            <mxPoint x="610" y="680" as="sourcePoint" />
            <mxPoint x="660" y="630" as="targetPoint" />
          </mxGeometry>
        </mxCell>
        <mxCell id="MCVplzFCMB12nCnuoPRh-26" value="include" style="edgeLabel;html=1;align=center;verticalAlign=middle;resizable=0;points=[];" vertex="1" connectable="0" parent="MCVplzFCMB12nCnuoPRh-24">
          <mxGeometry x="-0.032" y="-3" relative="1" as="geometry">
            <mxPoint as="offset" />
          </mxGeometry>
        </mxCell>
        <mxCell id="MCVplzFCMB12nCnuoPRh-27" value="Присвоение очереди для заявки" style="ellipse;whiteSpace=wrap;html=1;" vertex="1" parent="1">
          <mxGeometry x="450" y="770" width="120" height="80" as="geometry" />
        </mxCell>
        <mxCell id="MCVplzFCMB12nCnuoPRh-28" value="" style="endArrow=classic;html=1;rounded=0;dashed=1;" edge="1" parent="1" target="MCVplzFCMB12nCnuoPRh-27">
          <mxGeometry width="50" height="50" relative="1" as="geometry">
            <mxPoint x="450" y="690" as="sourcePoint" />
            <mxPoint x="787.57" y="630" as="targetPoint" />
          </mxGeometry>
        </mxCell>
        <mxCell id="MCVplzFCMB12nCnuoPRh-29" value="include" style="edgeLabel;html=1;align=center;verticalAlign=middle;resizable=0;points=[];" vertex="1" connectable="0" parent="MCVplzFCMB12nCnuoPRh-28">
          <mxGeometry x="-0.032" y="-3" relative="1" as="geometry">
            <mxPoint as="offset" />
          </mxGeometry>
        </mxCell>
        <mxCell id="MCVplzFCMB12nCnuoPRh-30" value="Добавление комментариев и материалов" style="ellipse;whiteSpace=wrap;html=1;" vertex="1" parent="1">
          <mxGeometry x="640" y="690" width="120" height="80" as="geometry" />
        </mxCell>
        <mxCell id="MCVplzFCMB12nCnuoPRh-32" value="" style="endArrow=none;dashed=1;html=1;rounded=0;exitX=1;exitY=1;exitDx=0;exitDy=0;entryX=0;entryY=0;entryDx=0;entryDy=0;" edge="1" parent="1" source="MCVplzFCMB12nCnuoPRh-21" target="MCVplzFCMB12nCnuoPRh-30">
          <mxGeometry width="50" height="50" relative="1" as="geometry">
            <mxPoint x="680" y="740" as="sourcePoint" />
            <mxPoint x="730" y="690" as="targetPoint" />
          </mxGeometry>
        </mxCell>
        <mxCell id="MCVplzFCMB12nCnuoPRh-33" value="include" style="edgeLabel;html=1;align=center;verticalAlign=middle;resizable=0;points=[];" vertex="1" connectable="0" parent="MCVplzFCMB12nCnuoPRh-32">
          <mxGeometry x="0.1403" relative="1" as="geometry">
            <mxPoint as="offset" />
          </mxGeometry>
        </mxCell>
        <mxCell id="MCVplzFCMB12nCnuoPRh-34" value="" style="endArrow=none;html=1;rounded=0;exitX=0.252;exitY=0.095;exitDx=0;exitDy=0;exitPerimeter=0;" edge="1" parent="1" source="Z-cno5B3Iub0lj5Ad9rB-76">
          <mxGeometry width="50" height="50" relative="1" as="geometry">
            <mxPoint x="1170" y="610" as="sourcePoint" />
            <mxPoint x="930" y="560" as="targetPoint" />
          </mxGeometry>
        </mxCell>
        <mxCell id="MCVplzFCMB12nCnuoPRh-35" value="Возможность обновления информации о пользователях" style="ellipse;whiteSpace=wrap;html=1;" vertex="1" parent="1">
          <mxGeometry x="827" y="690" width="120" height="80" as="geometry" />
        </mxCell>
        <mxCell id="MCVplzFCMB12nCnuoPRh-36" value="" style="endArrow=none;html=1;rounded=0;exitX=0.5;exitY=0;exitDx=0;exitDy=0;entryX=0;entryY=1;entryDx=0;entryDy=0;entryPerimeter=0;" edge="1" parent="1" source="MCVplzFCMB12nCnuoPRh-35" target="Z-cno5B3Iub0lj5Ad9rB-16">
          <mxGeometry width="50" height="50" relative="1" as="geometry">
            <mxPoint x="1020" y="678" as="sourcePoint" />
            <mxPoint x="940" y="570" as="targetPoint" />
          </mxGeometry>
        </mxCell>
        <mxCell id="MCVplzFCMB12nCnuoPRh-37" value="Распределение данных по категориям" style="ellipse;whiteSpace=wrap;html=1;" vertex="1" parent="1">
          <mxGeometry x="1290" y="505" width="120" height="80" as="geometry" />
        </mxCell>
        <mxCell id="MCVplzFCMB12nCnuoPRh-38" value="" style="endArrow=none;dashed=1;html=1;rounded=0;exitX=1;exitY=0.5;exitDx=0;exitDy=0;entryX=0;entryY=0.5;entryDx=0;entryDy=0;" edge="1" parent="1" source="Z-cno5B3Iub0lj5Ad9rB-71" target="MCVplzFCMB12nCnuoPRh-37">
          <mxGeometry width="50" height="50" relative="1" as="geometry">
            <mxPoint x="1410" y="550" as="sourcePoint" />
            <mxPoint x="1460" y="500" as="targetPoint" />
          </mxGeometry>
        </mxCell>
        <mxCell id="MCVplzFCMB12nCnuoPRh-39" value="extend" style="edgeLabel;html=1;align=center;verticalAlign=middle;resizable=0;points=[];" vertex="1" connectable="0" parent="MCVplzFCMB12nCnuoPRh-38">
          <mxGeometry x="0.181" y="1" relative="1" as="geometry">
            <mxPoint as="offset" />
          </mxGeometry>
        </mxCell>
      </root>
    </mxGraphModel>
  </diagram>
</mxfile>
